#!OML:ASF F:\VICON\USERDATA\INSTALL\rory3\rory3.ASF
:FULLY-SPECIFIED
:DEGREES
1854
root -2.22719 17.5132 2.75219 4.36647 5.47545 2.00844
lowerback 8.18433 -0.107685 4.062
upperback 0.997847 0.346571 3.18235
thorax -3.55389 0.137241 0.977414
lowerneck -25.8622 -14.2894 -11.7271
upperneck -6.29958 -16.003 16.4796
head 4.32195 -6.87081 5.10636
rclavicle -7.7526e-015 -2.38542e-014
rhumerus 67.5299 -39.0768 -54.9388
rradius 39.0482
rwrist 2.69879
rhand -57.6148 -12.4342
rfingers 7.12502
rthumb -29.8784 -40.0435
lclavicle -7.7526e-015 -2.38542e-014
lhumerus -41.116 9.93148 68.2256
lradius 49.4975
lwrist -5.49683
lhand -17.006 23.7239
lfingers 7.12502
lthumb 9.22956 53.5019
rfemur -18.4944 -10.8844 17.5181
rtibia 40.8071
rfoot -21.5282 1.13903
rtoes 6.90739
lfemur -11.4518 -8.42926 -7.58738
ltibia 21.4428
lfoot -8.65501 9.58752
ltoes -23.7842
1855
root -2.20966 17.5167 2.75132 4.30165 5.59598 2.02847
lowerback 8.31982 -0.0690468 4.01333
upperback 0.915701 0.40304 3.0972
thorax -3.71403 0.162725 0.910576
lowerneck -26.049 -14.2846 -11.4788
upperneck -6.02079 -16.0475 16.0639
head 4.37026 -6.9004 4.92261
rclavicle -1.03368e-014 -3.33958e-014
rhumerus 69.3759 -38.1053 -55.7715
rradius 39.1513
rwrist 3.82457
rhand -57.4345 -12.2705
rfingers 7.12502
rthumb -29.7063 -39.9105
lclavicle -1.03368e-014 -3.33958e-014
lhumerus -41.0381 9.91315 68.2827
lradius 49.3606
lwrist -5.37173
lhand -17.5985 22.9779
lfingers 7.12502
lthumb 8.65776 52.7804
rfemur -18.3302 -10.732 17.433
rtibia 40.691
rfoot -21.5392 0.846199
rtoes 6.26529
lfemur -11.6037 -8.25219 -7.73487
ltibia 21.7987
lfoot -8.75125 9.50239
ltoes -23.6558
1856
root -2.1901 17.5182 2.75401 4.27772 5.73992 2.10807
lowerback 8.42082 -0.0309333 3.94448
upperback 0.768737 0.455647 2.97041
thorax -3.92221 0.185167 0.812145
lowerneck -26.0207 -14.251 -11.4021
upperneck -5.85674 -16.0336 15.9042
head 4.39225 -6.89831 4.86164
rclavicle -7.55382e-015 -1.90833e-014
rhumerus 70.6143 -37.2051 -55.8441
rradius 39.3509
rwrist 4.42164
rhand -57.1886 -12.5017
rfingers 7.12502
rthumb -29.4716 -40.1834
lclavicle -7.55382e-015 -1.90833e-014
lhumerus -41.007 9.82759 68.2258
lradius 49.2295
lwrist -5.45784
lhand -17.2981 23.0198
lfingers 7.12502
lthumb 8.94767 52.8101
rfemur -18.199 -10.6443 17.259
rtibia 40.5996
rfoot -21.5817 0.704846
rtoes 6.28081
lfemur -11.7749 -8.04105 -7.9405
ltibia 22.1062
lfoot -8.87092 9.34301
ltoes -23.2671
1857
root -2.16732 17.5205 2.75765 4.17556 5.81772 2.08599
lowerback 8.52003 0.0337289 4.08592
upperback 0.731547 0.555736 2.80537
thorax -4.01194 0.22947 0.54979
lowerneck -26.0195 -14.2688 -11.515
upperneck -5.79028 -16.044 16.1068
head 4.44741 -6.88617 4.9362
rclavicle 8.15017e-015 -3.33958e-014
rhumerus 71.5123 -36.6347 -55.2185
rradius 39.5419
rwrist 4.5854
rhand -57.1925 -11.8805
rfingers 7.12502
rthumb -29.4753 -39.5616
lclavicle 8.15017e-015 -3.33958e-014
lhumerus -40.8254 9.76751 68.1416
lradius 49.1711
lwrist -5.81954
lhand -16.9156 23.7501
lfingers 7.12502
lthumb 9.31678 53.5243
rfemur -18.0011 -10.2625 17.1199
rtibia 40.5333
rfoot -21.7205 0.711454
rtoes 7.85006
lfemur -11.8276 -7.85809 -8.07097
ltibia 22.4345
lfoot -9.05443 9.29303
ltoes -22.839
1858
root -2.14309 17.52 2.75817 4.02731 5.85285 2.01584
lowerback 8.60932 0.0916625 4.27293
upperback 0.81714 0.645899 2.66403
thorax -3.96709 0.271186 0.287136
lowerneck -26.1886 -14.3173 -11.5165
upperneck -5.76698 -16.0984 16.2437
head 4.49969 -6.89428 4.96304
rclavicle -4.37326e-015 -5.56597e-014
rhumerus 73.0049 -35.7446 -55.5198
rradius 39.5936
rwrist 6.15738
rhand -57.083 -10.7216
rfingers 7.12502
rthumb -29.3707 -38.421
lclavicle -4.37326e-015 -5.56597e-014
lhumerus -40.5864 9.80819 68.1397
lradius 49.2843
lwrist -5.94153
lhand -16.8415 24.2685
lfingers 7.12502
lthumb 9.38828 54.0394
rfemur -17.7833 -9.87759 17.0569
rtibia 40.5029
rfoot -21.8705 0.585634
rtoes 8.29959
lfemur -11.8358 -7.64643 -8.18148
ltibia 22.7544
lfoot -9.14279 9.33779
ltoes -23.3083
1859
root -2.11837 17.5185 2.75505 3.95845 5.89227 2.01992
lowerback 8.72613 0.17444 4.37713
upperback 0.793338 0.767353 2.50165
thorax -4.05038 0.326594 0.0451942
lowerneck -26.0787 -14.3396 -11.5454
upperneck -5.98679 -16.111 16.3582
head 4.43377 -6.90335 5.0096
rclavicle -1.41137e-014 -7.95139e-015
rhumerus 74.168 -34.744 -55.6944
rradius 39.7842
rwrist 7.4175
rhand -56.662 -9.36103
rfingers 7.12502
rthumb -28.9687 -37.1302
lclavicle -1.41137e-014 -7.95139e-015
lhumerus -40.5499 9.74787 68.1487
lradius 49.5412
lwrist -5.97047
lhand -16.7148 24.3372
lfingers 7.12502
lthumb 9.5105 54.1026
rfemur -17.6884 -9.68645 16.956
rtibia 40.492
rfoot -21.9148 0.409728
rtoes 8.05018
lfemur -11.9161 -7.26793 -8.37371
ltibia 23.0523
lfoot -9.2106 9.26759
ltoes -23.5821
1860
root -2.09172 17.518 2.75297 3.96229 5.9106 2.14696
lowerback 8.80552 0.248602 4.36734
upperback 0.691487 0.865392 2.29696
thorax -4.1948 0.369936 -0.174415
lowerneck -25.9707 -14.316 -11.6154
upperneck -6.03212 -16.07 16.4449
head 4.41671 -6.88207 5.05793
rclavicle -5.96354e-016 -1.27222e-014
rhumerus 75.0035 -33.8431 -55.3922
rradius 40.1423
rwrist 7.84718
rhand -55.9521 -7.78486
rfingers 7.12502
rthumb -28.2905 -35.6684
lclavicle -5.96354e-016 -1.27222e-014
lhumerus -40.5471 9.69392 68.1206
lradius 49.6704
lwrist -5.78924
lhand -17.2173 23.5232
lfingers 7.12502
lthumb 9.02564 53.3101
rfemur -17.6665 -9.48129 16.7077
rtibia 40.5131
rfoot -21.9588 0.224587
rtoes 7.91782
lfemur -12.0245 -6.86156 -8.70697
ltibia 23.3257
lfoot -9.27213 9.18111
ltoes -24.0611
